<svg width="654" height="415" viewBox="0 0 654 415" fill="none" xmlns="http://www.w3.org/2000/svg">
<g clip-path="url(#clip0_4_12)">
<path d="M7.34684 16.9337C1.62924 8.78083 -1.22956 4.70439 0.502315 1.90207C2.23418 -0.900252 7.15877 -0.166455 17.008 1.30114L127.901 17.8249C136.359 19.0852 140.588 19.7154 144.308 21.6538C148.028 23.5923 150.967 26.6976 156.845 32.9082L188.952 66.83C196.365 74.6614 200.071 78.5772 198.62 81.6642C197.168 84.7513 191.788 84.3949 181.029 83.6823L71.8638 76.4516C60.1257 75.6741 54.2566 75.2853 49.3101 72.5011C44.3636 69.7169 40.9863 64.9011 34.2318 55.2697L7.34684 16.9337Z" fill="url(#paint0_linear_4_12)"/>
<path d="M171.631 41.982C163.269 33.2218 159.088 28.8418 160.733 25.6708C162.378 22.4998 168.366 23.3956 180.344 25.1871L253.263 36.0938C260.813 37.223 264.588 37.7876 267.977 39.4123C271.367 41.0369 274.171 43.6258 279.781 48.8035L312.044 78.5852C320.938 86.7949 325.385 90.8998 323.945 94.1679C322.504 97.436 316.474 96.9231 304.414 95.8973L234.772 89.9736C225.448 89.1804 220.786 88.7839 216.661 86.808C212.536 84.8321 209.305 81.4475 202.843 74.6784L171.631 41.982Z" fill="url(#paint1_linear_4_12)"/>
<path d="M297.386 61.0063C287.608 51.9535 282.72 47.427 284.324 44.0979C285.929 40.7688 292.515 41.7735 305.688 43.7829L347.837 50.2125C354.861 51.2839 358.373 51.8196 361.559 53.2809C364.745 54.7423 367.443 57.0541 372.837 61.6779L401.369 86.1342C411.083 94.4603 415.94 98.6234 414.529 101.983C413.119 105.344 406.746 104.792 394 103.69L355.36 100.347C346.899 99.615 342.669 99.249 338.858 97.5628C335.047 95.8766 331.932 92.9917 325.7 87.2218L297.386 61.0063Z" fill="url(#paint2_linear_4_12)"/>
<path d="M359.939 121.076C351.147 112.889 346.751 108.796 348.193 105.539C349.634 102.282 355.62 102.786 367.592 103.792L411.764 107.506C419.803 108.182 423.822 108.52 427.476 110.059C431.131 111.597 434.182 114.235 440.283 119.512L481.669 155.306C490.19 162.675 494.45 166.36 493.238 169.615C492.026 172.869 486.393 172.869 475.128 172.869H435.238C425.519 172.869 420.66 172.869 416.247 171.133C411.835 169.397 408.279 166.086 401.166 159.462L359.939 121.076Z" fill="url(#paint3_linear_4_12)"/>
<path d="M435.216 191.697C427.33 184.375 423.388 180.714 424.634 177.542C425.879 174.369 431.26 174.369 442.02 174.369H484.808C493.932 174.369 498.494 174.369 502.682 175.914C506.871 177.459 510.34 180.422 517.278 186.347L570.281 231.611C577.477 237.757 581.075 240.829 580.188 243.922C579.301 247.014 574.621 247.711 565.262 249.106L530.255 254.325C518.572 256.066 512.73 256.937 507.287 255.252C501.844 253.567 497.516 249.548 488.86 241.511L435.216 191.697Z" fill="url(#paint4_linear_4_12)"/>
<path d="M235.532 111.383C227.902 103.382 224.087 99.3819 225.572 96.2714C227.057 93.1608 232.566 93.6123 243.586 94.5153L316.319 100.476C324.744 101.166 328.957 101.511 332.76 103.167C336.564 104.823 339.687 107.672 345.932 113.369L391.549 154.981C399.589 162.316 403.609 165.983 402.372 169.176C401.134 172.369 395.693 172.369 384.81 172.369H315.101C304.547 172.369 299.27 172.369 294.557 170.351C289.844 168.333 286.202 164.514 278.918 156.877L235.532 111.383Z" fill="url(#paint5_linear_4_12)"/>
<path d="M312.646 192.151C306.006 184.956 302.687 181.358 303.998 178.364C305.309 175.369 310.205 175.369 319.995 175.369H392.837C402.595 175.369 407.474 175.369 411.901 177.118C416.327 178.867 419.889 182.202 427.012 188.872L486.528 244.601C493.14 250.792 496.446 253.887 495.498 256.89C494.549 259.893 490.066 260.529 481.098 261.801L414.953 271.184C402.228 272.99 395.865 273.892 390.062 271.824C384.259 269.756 379.901 265.034 371.185 255.588L312.646 192.151Z" fill="url(#paint6_linear_4_12)"/>
<path d="M62.6002 95.0738C57.3324 87.6178 54.6985 83.8898 56.2486 81.1347C57.7987 78.3796 62.3523 78.6956 71.4596 79.3275L189.12 87.4915C198.927 88.172 203.83 88.5123 208.15 90.5892C212.47 92.6661 215.798 96.2833 222.454 103.518L271.079 156.367C277.604 163.46 280.867 167.006 279.581 169.985C278.295 172.965 273.476 173.022 263.839 173.137L145.25 174.555C132.38 174.709 125.945 174.786 120.451 171.982C114.956 169.178 111.243 163.922 103.816 153.41L62.6002 95.0738Z" fill="url(#paint7_linear_4_12)"/>
<path d="M133.102 193.321C128.344 186.528 125.965 183.131 127.334 180.452C128.703 177.773 132.849 177.71 141.142 177.585L265.904 175.706C276.904 175.54 282.404 175.457 287.304 177.559C292.204 179.66 295.935 183.702 303.397 191.786L368.689 262.517C374.312 268.608 377.123 271.653 376.127 274.491C375.131 277.329 371.032 277.948 362.836 279.187L240.124 297.737C225.215 299.99 217.76 301.117 211.216 298.312C204.671 295.508 200.346 289.332 191.696 276.982L133.102 193.321Z" fill="url(#paint8_linear_4_12)"/>
<path d="M81.7938 363.261C81.5211 360.511 80.3506 358.375 78.2824 356.852C76.2143 355.33 73.4074 354.568 69.862 354.568C67.4529 354.568 65.4188 354.909 63.7597 355.591C62.1006 356.25 60.8279 357.17 59.9415 358.352C59.0779 359.534 58.6461 360.875 58.6461 362.375C58.6006 363.625 58.862 364.716 59.4302 365.648C60.0211 366.58 60.8279 367.386 61.8506 368.068C62.8733 368.727 64.0552 369.307 65.3961 369.807C66.737 370.284 68.1688 370.693 69.6915 371.034L75.9643 372.534C79.0097 373.216 81.8052 374.125 84.3506 375.261C86.8961 376.398 89.1006 377.795 90.9643 379.455C92.8279 381.114 94.2711 383.068 95.2938 385.318C96.3393 387.568 96.8733 390.148 96.8961 393.057C96.8733 397.33 95.7824 401.034 93.6233 404.17C91.487 407.284 88.3961 409.705 84.3506 411.432C80.3279 413.136 75.4756 413.989 69.7938 413.989C64.1574 413.989 59.2483 413.125 55.0665 411.398C50.9074 409.67 47.6574 407.114 45.3165 403.727C42.9983 400.318 41.7824 396.102 41.6688 391.08H55.9529C56.112 393.42 56.7824 395.375 57.9643 396.943C59.1688 398.489 60.7711 399.659 62.7711 400.455C64.7938 401.227 67.0779 401.614 69.6233 401.614C72.1233 401.614 74.2938 401.25 76.1347 400.523C77.9983 399.795 79.4415 398.784 80.4643 397.489C81.487 396.193 81.9983 394.705 81.9983 393.023C81.9983 391.455 81.5324 390.136 80.6006 389.068C79.6915 388 78.3506 387.091 76.5779 386.341C74.8279 385.591 72.6802 384.909 70.1347 384.295L62.5324 382.386C56.6461 380.955 51.9983 378.716 48.5893 375.67C45.1802 372.625 43.487 368.523 43.5097 363.364C43.487 359.136 44.612 355.443 46.8847 352.284C49.1802 349.125 52.3279 346.659 56.3279 344.886C60.3279 343.114 64.8733 342.227 69.9643 342.227C75.1461 342.227 79.6688 343.114 83.5324 344.886C87.4188 346.659 90.4415 349.125 92.6006 352.284C94.7597 355.443 95.8733 359.102 95.9415 363.261H81.7938ZM164.264 378.091C164.264 385.705 162.821 392.182 159.935 397.523C157.071 402.864 153.162 406.943 148.207 409.761C143.276 412.557 137.73 413.955 131.571 413.955C125.366 413.955 119.798 412.545 114.866 409.727C109.935 406.909 106.037 402.83 103.173 397.489C100.31 392.148 98.8778 385.682 98.8778 378.091C98.8778 370.477 100.31 364 103.173 358.659C106.037 353.318 109.935 349.25 114.866 346.455C119.798 343.636 125.366 342.227 131.571 342.227C137.73 342.227 143.276 343.636 148.207 346.455C153.162 349.25 157.071 353.318 159.935 358.659C162.821 364 164.264 370.477 164.264 378.091ZM149.298 378.091C149.298 373.159 148.56 369 147.082 365.614C145.628 362.227 143.571 359.659 140.912 357.909C138.253 356.159 135.139 355.284 131.571 355.284C128.003 355.284 124.889 356.159 122.23 357.909C119.571 359.659 117.503 362.227 116.026 365.614C114.571 369 113.844 373.159 113.844 378.091C113.844 383.023 114.571 387.182 116.026 390.568C117.503 393.955 119.571 396.523 122.23 398.273C124.889 400.023 128.003 400.898 131.571 400.898C135.139 400.898 138.253 400.023 140.912 398.273C143.571 396.523 145.628 393.955 147.082 390.568C148.56 387.182 149.298 383.023 149.298 378.091ZM168.479 413V343.182H183.24V400.83H213.172V413H168.479ZM230.043 413H214.225L238.327 343.182H257.35L281.418 413H265.6L248.111 359.136H247.566L230.043 413ZM229.054 385.557H266.418V397.08H229.054V385.557ZM339.168 360.636C338.759 357.182 337.1 354.5 334.191 352.591C331.282 350.682 327.714 349.727 323.486 349.727C320.395 349.727 317.691 350.227 315.373 351.227C313.077 352.227 311.282 353.602 309.986 355.352C308.714 357.102 308.077 359.091 308.077 361.318C308.077 363.182 308.52 364.784 309.407 366.125C310.316 367.443 311.475 368.545 312.884 369.432C314.293 370.295 315.77 371.011 317.316 371.58C318.861 372.125 320.282 372.568 321.577 372.909L328.668 374.818C330.486 375.295 332.509 375.955 334.736 376.795C336.986 377.636 339.134 378.784 341.18 380.239C343.248 381.67 344.952 383.511 346.293 385.761C347.634 388.011 348.305 390.773 348.305 394.045C348.305 397.818 347.316 401.227 345.339 404.273C343.384 407.318 340.52 409.739 336.748 411.534C332.998 413.33 328.441 414.227 323.077 414.227C318.077 414.227 313.748 413.42 310.089 411.807C306.452 410.193 303.589 407.943 301.498 405.057C299.43 402.17 298.259 398.818 297.986 395H306.714C306.941 397.636 307.827 399.818 309.373 401.545C310.941 403.25 312.918 404.523 315.305 405.364C317.714 406.182 320.305 406.591 323.077 406.591C326.305 406.591 329.202 406.068 331.77 405.023C334.339 403.955 336.373 402.477 337.873 400.591C339.373 398.682 340.123 396.455 340.123 393.909C340.123 391.591 339.475 389.705 338.18 388.25C336.884 386.795 335.18 385.614 333.066 384.705C330.952 383.795 328.668 383 326.214 382.318L317.623 379.864C312.168 378.295 307.85 376.057 304.668 373.148C301.486 370.239 299.895 366.432 299.895 361.727C299.895 357.818 300.952 354.409 303.066 351.5C305.202 348.568 308.066 346.295 311.657 344.682C315.27 343.045 319.305 342.227 323.759 342.227C328.259 342.227 332.259 343.034 335.759 344.648C339.259 346.239 342.032 348.42 344.077 351.193C346.145 353.966 347.236 357.114 347.35 360.636H339.168ZM364.125 413V343.182H372.58V374.273H409.807V343.182H418.262V413H409.807V381.773H372.58V413H364.125ZM439.971 413H431.108L456.744 343.182H465.471L491.108 413H482.244L461.38 354.227H460.835L439.971 413ZM443.244 385.727H478.971V393.227H443.244V385.727ZM503.903 413V343.182H527.494C532.948 343.182 537.425 344.114 540.925 345.977C544.425 347.818 547.016 350.352 548.698 353.58C550.38 356.807 551.221 360.477 551.221 364.591C551.221 368.705 550.38 372.352 548.698 375.534C547.016 378.716 544.437 381.216 540.959 383.034C537.482 384.83 533.039 385.727 527.63 385.727H508.539V378.091H527.357C531.084 378.091 534.084 377.545 536.357 376.455C538.653 375.364 540.312 373.818 541.334 371.818C542.38 369.795 542.903 367.386 542.903 364.591C542.903 361.795 542.38 359.352 541.334 357.261C540.289 355.17 538.619 353.557 536.323 352.42C534.028 351.261 530.994 350.682 527.221 350.682H512.357V413H503.903ZM536.766 381.636L553.948 413H544.13L527.221 381.636H536.766ZM567.229 413V343.182H609.365V350.682H575.684V374.273H607.184V381.773H575.684V405.5H609.911V413H567.229Z" fill="white"/>
</g>
<defs>
<linearGradient id="paint0_linear_4_12" x1="345.977" y1="70.3694" x2="222.897" y2="239.326" gradientUnits="userSpaceOnUse">
<stop stop-color="#14F195"/>
<stop offset="0.54" stop-color="#63B3FF"/>
<stop offset="1" stop-color="#9945FF"/>
</linearGradient>
<linearGradient id="paint1_linear_4_12" x1="345.977" y1="70.3694" x2="222.897" y2="239.326" gradientUnits="userSpaceOnUse">
<stop stop-color="#14F195"/>
<stop offset="0.54" stop-color="#63B3FF"/>
<stop offset="1" stop-color="#9945FF"/>
</linearGradient>
<linearGradient id="paint2_linear_4_12" x1="345.977" y1="70.3694" x2="222.897" y2="239.326" gradientUnits="userSpaceOnUse">
<stop stop-color="#14F195"/>
<stop offset="0.54" stop-color="#63B3FF"/>
<stop offset="1" stop-color="#9945FF"/>
</linearGradient>
<linearGradient id="paint3_linear_4_12" x1="345.977" y1="70.3694" x2="222.897" y2="239.326" gradientUnits="userSpaceOnUse">
<stop stop-color="#14F195"/>
<stop offset="0.54" stop-color="#63B3FF"/>
<stop offset="1" stop-color="#9945FF"/>
</linearGradient>
<linearGradient id="paint4_linear_4_12" x1="345.977" y1="70.3694" x2="222.897" y2="239.326" gradientUnits="userSpaceOnUse">
<stop stop-color="#14F195"/>
<stop offset="0.54" stop-color="#63B3FF"/>
<stop offset="1" stop-color="#9945FF"/>
</linearGradient>
<linearGradient id="paint5_linear_4_12" x1="345.977" y1="70.3694" x2="222.897" y2="239.326" gradientUnits="userSpaceOnUse">
<stop stop-color="#14F195"/>
<stop offset="0.54" stop-color="#63B3FF"/>
<stop offset="1" stop-color="#9945FF"/>
</linearGradient>
<linearGradient id="paint6_linear_4_12" x1="345.977" y1="70.3694" x2="222.897" y2="239.326" gradientUnits="userSpaceOnUse">
<stop stop-color="#14F195"/>
<stop offset="0.54" stop-color="#63B3FF"/>
<stop offset="1" stop-color="#9945FF"/>
</linearGradient>
<linearGradient id="paint7_linear_4_12" x1="345.977" y1="70.3694" x2="222.897" y2="239.326" gradientUnits="userSpaceOnUse">
<stop stop-color="#14F195"/>
<stop offset="0.54" stop-color="#63B3FF"/>
<stop offset="1" stop-color="#9945FF"/>
</linearGradient>
<linearGradient id="paint8_linear_4_12" x1="345.977" y1="70.3694" x2="222.897" y2="239.326" gradientUnits="userSpaceOnUse">
<stop stop-color="#14F195"/>
<stop offset="0.54" stop-color="#63B3FF"/>
<stop offset="1" stop-color="#9945FF"/>
</linearGradient>
<clipPath id="clip0_4_12">
<rect width="654" height="415" fill="white"/>
</clipPath>
</defs>
</svg>
