<svg width="654" height="415" viewBox="0 0 654 415" fill="none" xmlns="http://www.w3.org/2000/svg">
<g clip-path="url(#clip0_4_16)">
<path d="M92.7938 365.261C92.5211 362.511 91.3506 360.375 89.2824 358.852C87.2143 357.33 84.4074 356.568 80.862 356.568C78.4529 356.568 76.4188 356.909 74.7597 357.591C73.1006 358.25 71.8279 359.17 70.9415 360.352C70.0779 361.534 69.6461 362.875 69.6461 364.375C69.6006 365.625 69.862 366.716 70.4302 367.648C71.0211 368.58 71.8279 369.386 72.8506 370.068C73.8733 370.727 75.0552 371.307 76.3961 371.807C77.737 372.284 79.1688 372.693 80.6915 373.034L86.9643 374.534C90.0097 375.216 92.8052 376.125 95.3506 377.261C97.8961 378.398 100.101 379.795 101.964 381.455C103.828 383.114 105.271 385.068 106.294 387.318C107.339 389.568 107.873 392.148 107.896 395.057C107.873 399.33 106.782 403.034 104.623 406.17C102.487 409.284 99.3961 411.705 95.3506 413.432C91.3279 415.136 86.4756 415.989 80.7938 415.989C75.1574 415.989 70.2483 415.125 66.0665 413.398C61.9074 411.67 58.6574 409.114 56.3165 405.727C53.9983 402.318 52.7824 398.102 52.6688 393.08H66.9529C67.112 395.42 67.7824 397.375 68.9643 398.943C70.1688 400.489 71.7711 401.659 73.7711 402.455C75.7938 403.227 78.0779 403.614 80.6233 403.614C83.1233 403.614 85.2938 403.25 87.1347 402.523C88.9983 401.795 90.4415 400.784 91.4643 399.489C92.487 398.193 92.9983 396.705 92.9983 395.023C92.9983 393.455 92.5324 392.136 91.6006 391.068C90.6915 390 89.3506 389.091 87.5779 388.341C85.8279 387.591 83.6802 386.909 81.1347 386.295L73.5324 384.386C67.6461 382.955 62.9983 380.716 59.5893 377.67C56.1802 374.625 54.487 370.523 54.5097 365.364C54.487 361.136 55.612 357.443 57.8847 354.284C60.1802 351.125 63.3279 348.659 67.3279 346.886C71.3279 345.114 75.8733 344.227 80.9643 344.227C86.1461 344.227 90.6688 345.114 94.5324 346.886C98.4188 348.659 101.442 351.125 103.601 354.284C105.76 357.443 106.873 361.102 106.942 365.261H92.7938ZM175.264 380.091C175.264 387.705 173.821 394.182 170.935 399.523C168.071 404.864 164.162 408.943 159.207 411.761C154.276 414.557 148.73 415.955 142.571 415.955C136.366 415.955 130.798 414.545 125.866 411.727C120.935 408.909 117.037 404.83 114.173 399.489C111.31 394.148 109.878 387.682 109.878 380.091C109.878 372.477 111.31 366 114.173 360.659C117.037 355.318 120.935 351.25 125.866 348.455C130.798 345.636 136.366 344.227 142.571 344.227C148.73 344.227 154.276 345.636 159.207 348.455C164.162 351.25 168.071 355.318 170.935 360.659C173.821 366 175.264 372.477 175.264 380.091ZM160.298 380.091C160.298 375.159 159.56 371 158.082 367.614C156.628 364.227 154.571 361.659 151.912 359.909C149.253 358.159 146.139 357.284 142.571 357.284C139.003 357.284 135.889 358.159 133.23 359.909C130.571 361.659 128.503 364.227 127.026 367.614C125.571 371 124.844 375.159 124.844 380.091C124.844 385.023 125.571 389.182 127.026 392.568C128.503 395.955 130.571 398.523 133.23 400.273C135.889 402.023 139.003 402.898 142.571 402.898C146.139 402.898 149.253 402.023 151.912 400.273C154.571 398.523 156.628 395.955 158.082 392.568C159.56 389.182 160.298 385.023 160.298 380.091ZM179.479 415V345.182H194.24V402.83H224.172V415H179.479ZM241.043 415H225.225L249.327 345.182H268.35L292.418 415H276.6L259.111 361.136H258.566L241.043 415ZM240.054 387.557H277.418V399.08H240.054V387.557ZM350.168 362.636C349.759 359.182 348.1 356.5 345.191 354.591C342.282 352.682 338.714 351.727 334.486 351.727C331.395 351.727 328.691 352.227 326.373 353.227C324.077 354.227 322.282 355.602 320.986 357.352C319.714 359.102 319.077 361.091 319.077 363.318C319.077 365.182 319.52 366.784 320.407 368.125C321.316 369.443 322.475 370.545 323.884 371.432C325.293 372.295 326.77 373.011 328.316 373.58C329.861 374.125 331.282 374.568 332.577 374.909L339.668 376.818C341.486 377.295 343.509 377.955 345.736 378.795C347.986 379.636 350.134 380.784 352.18 382.239C354.248 383.67 355.952 385.511 357.293 387.761C358.634 390.011 359.305 392.773 359.305 396.045C359.305 399.818 358.316 403.227 356.339 406.273C354.384 409.318 351.52 411.739 347.748 413.534C343.998 415.33 339.441 416.227 334.077 416.227C329.077 416.227 324.748 415.42 321.089 413.807C317.452 412.193 314.589 409.943 312.498 407.057C310.43 404.17 309.259 400.818 308.986 397H317.714C317.941 399.636 318.827 401.818 320.373 403.545C321.941 405.25 323.918 406.523 326.305 407.364C328.714 408.182 331.305 408.591 334.077 408.591C337.305 408.591 340.202 408.068 342.77 407.023C345.339 405.955 347.373 404.477 348.873 402.591C350.373 400.682 351.123 398.455 351.123 395.909C351.123 393.591 350.475 391.705 349.18 390.25C347.884 388.795 346.18 387.614 344.066 386.705C341.952 385.795 339.668 385 337.214 384.318L328.623 381.864C323.168 380.295 318.85 378.057 315.668 375.148C312.486 372.239 310.895 368.432 310.895 363.727C310.895 359.818 311.952 356.409 314.066 353.5C316.202 350.568 319.066 348.295 322.657 346.682C326.27 345.045 330.305 344.227 334.759 344.227C339.259 344.227 343.259 345.034 346.759 346.648C350.259 348.239 353.032 350.42 355.077 353.193C357.145 355.966 358.236 359.114 358.35 362.636H350.168ZM375.125 415V345.182H383.58V376.273H420.807V345.182H429.262V415H420.807V383.773H383.58V415H375.125ZM450.971 415H442.108L467.744 345.182H476.471L502.108 415H493.244L472.38 356.227H471.835L450.971 415ZM454.244 387.727H489.971V395.227H454.244V387.727ZM514.903 415V345.182H538.494C543.948 345.182 548.425 346.114 551.925 347.977C555.425 349.818 558.016 352.352 559.698 355.58C561.38 358.807 562.221 362.477 562.221 366.591C562.221 370.705 561.38 374.352 559.698 377.534C558.016 380.716 555.437 383.216 551.959 385.034C548.482 386.83 544.039 387.727 538.63 387.727H519.539V380.091H538.357C542.084 380.091 545.084 379.545 547.357 378.455C549.653 377.364 551.312 375.818 552.334 373.818C553.38 371.795 553.903 369.386 553.903 366.591C553.903 363.795 553.38 361.352 552.334 359.261C551.289 357.17 549.619 355.557 547.323 354.42C545.028 353.261 541.994 352.682 538.221 352.682H523.357V415H514.903ZM547.766 383.636L564.948 415H555.13L538.221 383.636H547.766ZM578.229 415V345.182H620.365V352.682H586.684V376.273H618.184V383.773H586.684V407.5H620.911V415H578.229Z" fill="#545455"/>
<path d="M7.34684 16.9337C1.62924 8.78083 -1.22956 4.70439 0.502315 1.90207C2.23418 -0.900252 7.15877 -0.166455 17.008 1.30114L127.901 17.8249C136.359 19.0852 140.588 19.7154 144.308 21.6538C148.028 23.5923 150.967 26.6976 156.845 32.9082L188.952 66.83C196.365 74.6614 200.071 78.5772 198.62 81.6642C197.168 84.7513 191.788 84.3949 181.029 83.6823L71.8638 76.4516C60.1257 75.6741 54.2566 75.2853 49.3101 72.5011C44.3636 69.7169 40.9863 64.9011 34.2318 55.2697L7.34684 16.9337Z" fill="url(#paint0_linear_4_16)"/>
<path d="M171.631 41.982C163.269 33.2218 159.088 28.8418 160.733 25.6708C162.378 22.4998 168.366 23.3956 180.344 25.1871L253.263 36.0938C260.813 37.223 264.588 37.7876 267.977 39.4123C271.367 41.0369 274.171 43.6258 279.781 48.8035L312.044 78.5852C320.938 86.7949 325.385 90.8998 323.945 94.1679C322.504 97.436 316.474 96.9231 304.414 95.8973L234.772 89.9736C225.448 89.1804 220.786 88.7839 216.661 86.808C212.536 84.8321 209.305 81.4475 202.843 74.6784L171.631 41.982Z" fill="url(#paint1_linear_4_16)"/>
<path d="M297.386 61.0063C287.608 51.9535 282.72 47.427 284.324 44.0979C285.929 40.7688 292.515 41.7735 305.688 43.7829L347.837 50.2125C354.861 51.2839 358.373 51.8196 361.559 53.2809C364.745 54.7423 367.443 57.0541 372.837 61.6779L401.369 86.1342C411.083 94.4603 415.94 98.6234 414.529 101.983C413.119 105.344 406.746 104.792 394 103.69L355.36 100.347C346.899 99.615 342.669 99.249 338.858 97.5628C335.047 95.8766 331.932 92.9917 325.7 87.2218L297.386 61.0063Z" fill="url(#paint2_linear_4_16)"/>
<path d="M359.939 121.076C351.147 112.889 346.751 108.796 348.193 105.539C349.634 102.282 355.62 102.786 367.592 103.792L411.764 107.506C419.803 108.182 423.822 108.52 427.476 110.059C431.131 111.597 434.182 114.235 440.283 119.512L481.669 155.306C490.19 162.675 494.45 166.36 493.238 169.615C492.026 172.869 486.393 172.869 475.128 172.869H435.238C425.519 172.869 420.66 172.869 416.247 171.133C411.835 169.397 408.279 166.086 401.166 159.462L359.939 121.076Z" fill="url(#paint3_linear_4_16)"/>
<path d="M435.216 191.697C427.33 184.375 423.388 180.714 424.634 177.542C425.879 174.369 431.26 174.369 442.02 174.369H484.808C493.932 174.369 498.494 174.369 502.682 175.914C506.871 177.459 510.34 180.422 517.278 186.347L570.281 231.611C577.477 237.757 581.075 240.829 580.188 243.922C579.301 247.014 574.621 247.711 565.262 249.106L530.255 254.325C518.572 256.066 512.73 256.937 507.287 255.252C501.844 253.567 497.516 249.548 488.86 241.511L435.216 191.697Z" fill="url(#paint4_linear_4_16)"/>
<path d="M235.532 111.383C227.902 103.382 224.087 99.3819 225.572 96.2714C227.057 93.1608 232.566 93.6123 243.586 94.5153L316.319 100.476C324.744 101.166 328.957 101.511 332.76 103.167C336.564 104.823 339.687 107.672 345.932 113.369L391.549 154.981C399.589 162.316 403.609 165.983 402.372 169.176C401.134 172.369 395.693 172.369 384.81 172.369H315.101C304.547 172.369 299.27 172.369 294.557 170.351C289.844 168.333 286.202 164.514 278.918 156.877L235.532 111.383Z" fill="url(#paint5_linear_4_16)"/>
<path d="M312.646 192.151C306.006 184.956 302.687 181.358 303.998 178.364C305.309 175.369 310.205 175.369 319.995 175.369H392.837C402.595 175.369 407.474 175.369 411.901 177.118C416.327 178.867 419.889 182.202 427.012 188.872L486.528 244.601C493.14 250.792 496.446 253.887 495.498 256.89C494.549 259.893 490.066 260.529 481.098 261.801L414.953 271.184C402.228 272.99 395.865 273.892 390.062 271.824C384.259 269.756 379.901 265.034 371.185 255.588L312.646 192.151Z" fill="url(#paint6_linear_4_16)"/>
<path d="M62.6002 95.0738C57.3324 87.6178 54.6985 83.8898 56.2486 81.1347C57.7987 78.3796 62.3523 78.6956 71.4596 79.3275L189.12 87.4915C198.927 88.172 203.83 88.5123 208.15 90.5892C212.47 92.6661 215.798 96.2833 222.454 103.518L271.079 156.367C277.604 163.46 280.867 167.006 279.581 169.985C278.295 172.965 273.476 173.022 263.839 173.137L145.25 174.555C132.38 174.709 125.945 174.786 120.451 171.982C114.956 169.178 111.243 163.922 103.816 153.41L62.6002 95.0738Z" fill="url(#paint7_linear_4_16)"/>
<path d="M133.102 193.321C128.344 186.528 125.965 183.131 127.334 180.452C128.703 177.773 132.849 177.71 141.142 177.585L265.904 175.706C276.904 175.54 282.404 175.457 287.304 177.559C292.204 179.66 295.935 183.702 303.397 191.786L368.689 262.517C374.312 268.608 377.123 271.653 376.127 274.491C375.131 277.329 371.032 277.948 362.836 279.187L240.124 297.737C225.215 299.99 217.76 301.117 211.216 298.312C204.671 295.508 200.346 289.332 191.696 276.982L133.102 193.321Z" fill="url(#paint8_linear_4_16)"/>
</g>
<defs>
<linearGradient id="paint0_linear_4_16" x1="345.977" y1="70.3694" x2="222.897" y2="239.326" gradientUnits="userSpaceOnUse">
<stop stop-color="#14F195"/>
<stop offset="0.54" stop-color="#63B3FF"/>
<stop offset="1" stop-color="#9945FF"/>
</linearGradient>
<linearGradient id="paint1_linear_4_16" x1="345.977" y1="70.3694" x2="222.897" y2="239.326" gradientUnits="userSpaceOnUse">
<stop stop-color="#14F195"/>
<stop offset="0.54" stop-color="#63B3FF"/>
<stop offset="1" stop-color="#9945FF"/>
</linearGradient>
<linearGradient id="paint2_linear_4_16" x1="345.977" y1="70.3694" x2="222.897" y2="239.326" gradientUnits="userSpaceOnUse">
<stop stop-color="#14F195"/>
<stop offset="0.54" stop-color="#63B3FF"/>
<stop offset="1" stop-color="#9945FF"/>
</linearGradient>
<linearGradient id="paint3_linear_4_16" x1="345.977" y1="70.3694" x2="222.897" y2="239.326" gradientUnits="userSpaceOnUse">
<stop stop-color="#14F195"/>
<stop offset="0.54" stop-color="#63B3FF"/>
<stop offset="1" stop-color="#9945FF"/>
</linearGradient>
<linearGradient id="paint4_linear_4_16" x1="345.977" y1="70.3694" x2="222.897" y2="239.326" gradientUnits="userSpaceOnUse">
<stop stop-color="#14F195"/>
<stop offset="0.54" stop-color="#63B3FF"/>
<stop offset="1" stop-color="#9945FF"/>
</linearGradient>
<linearGradient id="paint5_linear_4_16" x1="345.977" y1="70.3694" x2="222.897" y2="239.326" gradientUnits="userSpaceOnUse">
<stop stop-color="#14F195"/>
<stop offset="0.54" stop-color="#63B3FF"/>
<stop offset="1" stop-color="#9945FF"/>
</linearGradient>
<linearGradient id="paint6_linear_4_16" x1="345.977" y1="70.3694" x2="222.897" y2="239.326" gradientUnits="userSpaceOnUse">
<stop stop-color="#14F195"/>
<stop offset="0.54" stop-color="#63B3FF"/>
<stop offset="1" stop-color="#9945FF"/>
</linearGradient>
<linearGradient id="paint7_linear_4_16" x1="345.977" y1="70.3694" x2="222.897" y2="239.326" gradientUnits="userSpaceOnUse">
<stop stop-color="#14F195"/>
<stop offset="0.54" stop-color="#63B3FF"/>
<stop offset="1" stop-color="#9945FF"/>
</linearGradient>
<linearGradient id="paint8_linear_4_16" x1="345.977" y1="70.3694" x2="222.897" y2="239.326" gradientUnits="userSpaceOnUse">
<stop stop-color="#14F195"/>
<stop offset="0.54" stop-color="#63B3FF"/>
<stop offset="1" stop-color="#9945FF"/>
</linearGradient>
<clipPath id="clip0_4_16">
<rect width="654" height="415" fill="white"/>
</clipPath>
</defs>
</svg>
