<svg width="583" height="300" viewBox="0 0 583 300" fill="none" xmlns="http://www.w3.org/2000/svg">
<path d="M7.34684 16.9337C1.62924 8.78083 -1.22956 4.70439 0.502315 1.90207C2.23418 -0.900252 7.15877 -0.166455 17.008 1.30114L127.901 17.8249C136.359 19.0852 140.588 19.7154 144.308 21.6538C148.028 23.5923 150.967 26.6976 156.845 32.9082L188.952 66.83C196.365 74.6614 200.071 78.5772 198.62 81.6642C197.168 84.7513 191.788 84.3949 181.029 83.6823L71.8638 76.4516C60.1257 75.6741 54.2566 75.2853 49.3101 72.5011C44.3636 69.7169 40.9863 64.9011 34.2318 55.2697L7.34684 16.9337Z" fill="url(#paint0_linear_4_8)"/>
<path d="M171.631 41.982C163.269 33.2218 159.088 28.8418 160.733 25.6708C162.378 22.4998 168.366 23.3956 180.344 25.1871L253.263 36.0938C260.813 37.223 264.588 37.7876 267.977 39.4123C271.367 41.0369 274.171 43.6258 279.781 48.8035L312.044 78.5852C320.938 86.7949 325.385 90.8998 323.945 94.1679C322.504 97.436 316.474 96.9231 304.414 95.8973L234.772 89.9736C225.448 89.1804 220.786 88.7839 216.661 86.808C212.536 84.8321 209.305 81.4475 202.843 74.6784L171.631 41.982Z" fill="url(#paint1_linear_4_8)"/>
<path d="M297.386 61.0063C287.608 51.9535 282.72 47.427 284.324 44.0979C285.929 40.7688 292.515 41.7735 305.688 43.7829L347.837 50.2125C354.861 51.2839 358.373 51.8196 361.559 53.2809C364.745 54.7423 367.443 57.0541 372.837 61.6779L401.369 86.1342C411.083 94.4603 415.94 98.6234 414.529 101.983C413.119 105.344 406.746 104.792 394 103.69L355.36 100.347C346.899 99.615 342.669 99.249 338.858 97.5628C335.047 95.8766 331.932 92.9917 325.7 87.2218L297.386 61.0063Z" fill="url(#paint2_linear_4_8)"/>
<path d="M359.939 121.076C351.147 112.889 346.751 108.796 348.193 105.539C349.634 102.282 355.62 102.786 367.592 103.792L411.764 107.506C419.803 108.182 423.822 108.52 427.476 110.059C431.131 111.597 434.182 114.235 440.283 119.512L481.669 155.306C490.19 162.675 494.45 166.36 493.238 169.615C492.026 172.869 486.393 172.869 475.128 172.869H435.238C425.519 172.869 420.66 172.869 416.247 171.133C411.835 169.397 408.279 166.086 401.166 159.462L359.939 121.076Z" fill="url(#paint3_linear_4_8)"/>
<path d="M435.216 191.697C427.33 184.375 423.388 180.714 424.634 177.542C425.879 174.369 431.26 174.369 442.02 174.369H484.808C493.932 174.369 498.494 174.369 502.682 175.914C506.871 177.459 510.34 180.422 517.278 186.347L570.281 231.611C577.477 237.757 581.075 240.829 580.188 243.922C579.301 247.014 574.621 247.711 565.262 249.106L530.255 254.325C518.572 256.066 512.73 256.937 507.287 255.252C501.844 253.567 497.516 249.548 488.86 241.511L435.216 191.697Z" fill="url(#paint4_linear_4_8)"/>
<path d="M235.532 111.383C227.902 103.382 224.087 99.3819 225.572 96.2714C227.057 93.1608 232.566 93.6123 243.586 94.5153L316.319 100.476C324.744 101.166 328.957 101.511 332.76 103.167C336.564 104.823 339.687 107.672 345.932 113.369L391.549 154.981C399.589 162.316 403.609 165.983 402.372 169.176C401.134 172.369 395.693 172.369 384.81 172.369H315.101C304.547 172.369 299.27 172.369 294.557 170.351C289.844 168.333 286.202 164.514 278.918 156.877L235.532 111.383Z" fill="url(#paint5_linear_4_8)"/>
<path d="M312.646 192.151C306.006 184.956 302.687 181.358 303.998 178.364C305.309 175.369 310.205 175.369 319.995 175.369H392.837C402.595 175.369 407.474 175.369 411.901 177.118C416.327 178.867 419.889 182.202 427.012 188.872L486.528 244.601C493.14 250.792 496.446 253.887 495.498 256.89C494.549 259.893 490.066 260.529 481.098 261.801L414.953 271.184C402.228 272.99 395.865 273.892 390.062 271.824C384.259 269.756 379.901 265.034 371.185 255.588L312.646 192.151Z" fill="url(#paint6_linear_4_8)"/>
<path d="M62.6002 95.0738C57.3324 87.6178 54.6985 83.8898 56.2486 81.1347C57.7987 78.3796 62.3523 78.6956 71.4596 79.3275L189.12 87.4915C198.927 88.172 203.83 88.5123 208.15 90.5892C212.47 92.6661 215.798 96.2833 222.454 103.518L271.079 156.367C277.604 163.46 280.867 167.006 279.581 169.985C278.295 172.965 273.476 173.022 263.839 173.137L145.25 174.555C132.38 174.709 125.945 174.786 120.451 171.982C114.956 169.178 111.243 163.922 103.816 153.41L62.6002 95.0738Z" fill="url(#paint7_linear_4_8)"/>
<path d="M133.102 193.321C128.344 186.528 125.965 183.131 127.334 180.452C128.703 177.773 132.849 177.71 141.142 177.585L265.904 175.706C276.904 175.54 282.404 175.457 287.304 177.559C292.204 179.66 295.935 183.702 303.397 191.786L368.689 262.517C374.312 268.608 377.123 271.653 376.127 274.491C375.131 277.329 371.032 277.948 362.836 279.187L240.124 297.737C225.215 299.99 217.76 301.117 211.216 298.312C204.671 295.508 200.346 289.332 191.696 276.982L133.102 193.321Z" fill="url(#paint8_linear_4_8)"/>
<defs>
<linearGradient id="paint0_linear_4_8" x1="345.977" y1="70.3694" x2="222.897" y2="239.326" gradientUnits="userSpaceOnUse">
<stop stop-color="#A928E4"/>
<stop offset="1" stop-color="#09DCB3"/>
</linearGradient>
<linearGradient id="paint1_linear_4_8" x1="345.977" y1="70.3694" x2="222.897" y2="239.326" gradientUnits="userSpaceOnUse">
<stop stop-color="#A928E4"/>
<stop offset="1" stop-color="#09DCB3"/>
</linearGradient>
<linearGradient id="paint2_linear_4_8" x1="345.977" y1="70.3694" x2="222.897" y2="239.326" gradientUnits="userSpaceOnUse">
<stop stop-color="#A928E4"/>
<stop offset="1" stop-color="#09DCB3"/>
</linearGradient>
<linearGradient id="paint3_linear_4_8" x1="345.977" y1="70.3694" x2="222.897" y2="239.326" gradientUnits="userSpaceOnUse">
<stop stop-color="#A928E4"/>
<stop offset="1" stop-color="#09DCB3"/>
</linearGradient>
<linearGradient id="paint4_linear_4_8" x1="345.977" y1="70.3694" x2="222.897" y2="239.326" gradientUnits="userSpaceOnUse">
<stop stop-color="#A928E4"/>
<stop offset="1" stop-color="#09DCB3"/>
</linearGradient>
<linearGradient id="paint5_linear_4_8" x1="345.977" y1="70.3694" x2="222.897" y2="239.326" gradientUnits="userSpaceOnUse">
<stop stop-color="#A928E4"/>
<stop offset="1" stop-color="#09DCB3"/>
</linearGradient>
<linearGradient id="paint6_linear_4_8" x1="345.977" y1="70.3694" x2="222.897" y2="239.326" gradientUnits="userSpaceOnUse">
<stop stop-color="#A928E4"/>
<stop offset="1" stop-color="#09DCB3"/>
</linearGradient>
<linearGradient id="paint7_linear_4_8" x1="345.977" y1="70.3694" x2="222.897" y2="239.326" gradientUnits="userSpaceOnUse">
<stop stop-color="#A928E4"/>
<stop offset="1" stop-color="#09DCB3"/>
</linearGradient>
<linearGradient id="paint8_linear_4_8" x1="345.977" y1="70.3694" x2="222.897" y2="239.326" gradientUnits="userSpaceOnUse">
<stop stop-color="#A928E4"/>
<stop offset="1" stop-color="#09DCB3"/>
</linearGradient>
</defs>
</svg>
